<?xml version="1.0" standalone="no"?>
<!DOCTYPE svg PUBLIC "-//W3C//DTD SVG 20010904//EN"
 "http://www.w3.org/TR/2001/REC-SVG-20010904/DTD/svg10.dtd">
<svg version="1.0" xmlns="http://www.w3.org/2000/svg"
 width="48.000000pt" height="48.000000pt" viewBox="0 0 48.000000 48.000000"
 preserveAspectRatio="xMidYMid meet">

<g transform="translate(0.000000,48.000000) scale(0.100000,-0.100000)"
fill="#000000" stroke="none">
<path d="M134 451 c-39 -24 -64 -76 -64 -135 0 -27 -12 -76 -30 -121 -17 -42
-30 -82 -30 -89 0 -23 58 -65 112 -81 66 -19 170 -19 236 0 54 16 112 58 112
81 0 7 -13 47 -30 89 -18 45 -30 94 -30 121 0 106 -53 154 -170 154 -56 0 -83
-5 -106 -19z m106 -131 c8 0 32 2 53 6 52 9 79 -18 118 -120 17 -45 34 -87 36
-93 3 -7 1 -13 -4 -13 -6 0 -25 41 -44 91 -37 99 -55 123 -94 119 -14 -1 -43
-2 -65 -2 -22 0 -51 1 -65 2 -39 4 -57 -20 -94 -119 -19 -50 -38 -91 -44 -91
-5 0 -7 6 -4 13 2 6 19 49 37 95 40 104 61 126 115 118 22 -4 47 -6 55 -6z
m-36 -36 c10 -4 16 -18 16 -35 0 -28 -2 -29 -44 -29 -53 0 -64 12 -42 45 16
25 39 31 70 19z m142 -19 c22 -33 11 -45 -42 -45 -42 0 -44 1 -44 29 0 46 59
58 86 16z m-86 -74 c15 -28 13 -31 -20 -31 -16 0 -30 3 -30 6 0 12 21 44 30
44 5 0 14 -9 20 -19z m-30 -86 c0 -19 -4 -35 -10 -35 -5 0 -10 16 -10 35 0 19
5 35 10 35 6 0 10 -16 10 -35z m40 0 c0 -19 -4 -35 -10 -35 -5 0 -10 16 -10
35 0 19 5 35 10 35 6 0 10 -16 10 -35z m-80 -10 c0 -14 -4 -25 -10 -25 -11 0
-14 33 -3 43 11 11 13 8 13 -18z m120 -6 c0 -10 -4 -19 -10 -19 -5 0 -10 12
-10 26 0 14 4 23 10 19 6 -3 10 -15 10 -26z m-160 -19 c0 -5 -4 -10 -10 -10
-5 0 -10 5 -10 10 0 6 5 10 10 10 6 0 10 -4 10 -10z m200 0 c0 -5 -4 -10 -10
-10 -5 0 -10 5 -10 10 0 6 5 10 10 10 6 0 10 -4 10 -10z"/>
</g>
</svg>
